<?xml version="1.0" standalone="no"?>
<svg xmlns="http://www.w3.org/2000/svg" viewBox="0 0 192.408 29" width="192.408" height="29"><g fill="#ffcb33" color="#ffcb33" transform="translate(0, 0) scale(0.659091)"><svg width="44.0" height="44.0" x="0.0" y="0.0" viewBox="0 0 44 44"><path fill="currentColor" fill-rule="evenodd" d="M21.973 29.756l14.787 8.535-9.168 5.28-5.605-3.224-5.563 3.225-9.182-5.281 14.73-8.535zm0-15.005L44 27.454v6.492l-3.52 2.07-18.506-10.675L3.525 36.016l-3.52-2.042v-6.52L21.973 14.75zM21.97 0l22.026 12.689v10.576L21.984 10.591 0 23.294V12.703L21.97 0z"></path></svg></g><line x1="41" y1="1" x2="41" y2="28" stroke="white" stroke-linecap="round"></line><path fill="white" fill-rule="nonzero" d="M18.22 16.51L12.60 16.51L11.90 14.18L6.12 14.18L5.42 16.51L0 16.51L6.02 0L12.19 0L18.22 16.51ZM8.98 4.61L7.22 10.49L10.80 10.49L9.07 4.61L8.98 4.61ZM25.75 16.51L20.45 16.51L20.45 0L25.75 0L25.75 16.51ZM48.98 16.51L43.73 16.51L43.73 10.56Q43.73 9.46 43.81 8.29Q43.90 7.13 43.99 6.34Q44.09 5.54 44.11 5.33L44.11 5.33L44.02 5.33L40.97 16.51L36.82 16.51L33.74 5.35L33.65 5.35Q33.67 5.57 33.78 6.35Q33.89 7.13 33.98 8.29Q34.08 9.46 34.08 10.56L34.08 10.56L34.08 16.51L29.21 16.51L29.21 0L36.70 0L39.19 9.53L39.29 9.53L41.76 0L48.98 0L48.98 16.51ZM58.13 3.55Q61.03 3.55 62.86 4.52Q64.68 5.50 64.68 7.68L64.68 7.68L64.68 12.62Q64.68 13.03 64.87 13.30Q65.06 13.56 65.45 13.56L65.45 13.56L66.31 13.56L66.31 16.32Q66.24 16.37 65.94 16.48Q65.64 16.58 65.09 16.69Q64.54 16.80 63.82 16.80L63.82 16.80Q62.42 16.80 61.52 16.38Q60.62 15.96 60.29 15.22L60.29 15.22Q59.38 15.94 58.25 16.37Q57.12 16.80 55.61 16.80L55.61 16.80Q51.14 16.80 51.14 13.25L51.14 13.25Q51.14 11.40 52.14 10.43Q53.14 9.46 55.01 9.10Q56.88 8.74 59.90 8.74L59.90 8.74L59.90 8.11Q59.90 7.37 59.39 6.98Q58.87 6.60 58.06 6.60L58.06 6.60Q57.31 6.60 56.77 6.86Q56.23 7.13 56.23 7.70L56.23 7.70L56.23 7.80L51.53 7.80Q51.50 7.68 51.50 7.46L51.50 7.46Q51.50 5.66 53.22 4.61Q54.94 3.55 58.13 3.55L58.13 3.55ZM59.90 10.99Q57.86 10.99 56.89 11.44Q55.92 11.88 55.92 12.62L55.92 12.62Q55.92 13.82 57.55 13.82L57.55 13.82Q58.49 13.82 59.20 13.32Q59.90 12.82 59.90 12.07L59.90 12.07L59.90 10.99ZM76.61 3.55Q78.82 3.55 79.92 4.78Q81.02 6 81.02 8.30L81.02 8.30L81.02 16.51L76.25 16.51L76.25 8.88Q76.25 8.06 75.83 7.57Q75.41 7.08 74.64 7.08L74.64 7.08Q73.75 7.08 73.20 7.66Q72.65 8.23 72.65 9.07L72.65 9.07L72.65 16.51L67.87 16.51L67.87 3.84L71.78 3.84L72.10 5.76Q72.84 4.75 74.05 4.15Q75.26 3.55 76.61 3.55L76.61 3.55ZM90.14 3.55Q93.05 3.55 94.87 4.52Q96.70 5.50 96.70 7.68L96.70 7.68L96.70 12.62Q96.70 13.03 96.89 13.30Q97.08 13.56 97.46 13.56L97.46 13.56L98.33 13.56L98.33 16.32Q98.26 16.37 97.96 16.48Q97.66 16.58 97.10 16.69Q96.55 16.80 95.83 16.80L95.83 16.80Q94.44 16.80 93.54 16.38Q92.64 15.96 92.30 15.22L92.30 15.22Q91.39 15.94 90.26 16.37Q89.14 16.80 87.62 16.80L87.62 16.80Q83.16 16.80 83.16 13.25L83.16 13.25Q83.16 11.40 84.16 10.43Q85.15 9.46 87.02 9.10Q88.90 8.74 91.92 8.74L91.92 8.74L91.92 8.11Q91.92 7.37 91.40 6.98Q90.89 6.60 90.07 6.60L90.07 6.60Q89.33 6.60 88.79 6.86Q88.25 7.13 88.25 7.70L88.25 7.70L88.25 7.80L83.54 7.80Q83.52 7.68 83.52 7.46L83.52 7.46Q83.52 5.66 85.24 4.61Q86.95 3.55 90.14 3.55L90.14 3.55ZM91.92 10.99Q89.88 10.99 88.91 11.44Q87.94 11.88 87.94 12.62L87.94 12.62Q87.94 13.82 89.57 13.82L89.57 13.82Q90.50 13.82 91.21 13.32Q91.92 12.82 91.92 12.07L91.92 12.07L91.92 10.99ZM114.53 1.46Q114.53 2.93 113.80 3.72Q113.06 4.51 111.60 4.90L111.60 4.90Q112.30 5.42 112.69 6.13Q113.09 6.84 113.09 7.63L113.09 7.63Q113.09 9.65 111.56 10.68Q110.04 11.71 107.76 11.71L107.76 11.71L105.94 11.71Q104.42 11.71 104.42 12.41L104.42 12.41Q104.42 12.74 104.76 12.95Q105.10 13.15 105.94 13.15L105.94 13.15L110.26 13.15Q112.37 13.15 113.45 14.26Q114.53 15.36 114.53 17.21L114.53 17.21Q114.53 18.58 113.81 19.56Q113.09 20.54 111.86 21.05Q110.64 21.55 109.20 21.55L109.20 21.55L102.14 21.55Q101.28 21.55 100.55 21.14Q99.82 20.74 99.38 20.03Q98.95 19.32 98.95 18.46L98.95 18.46Q98.95 17.52 99.53 16.76Q100.10 16.01 100.97 15.62L100.97 15.62Q100.39 15.22 100.06 14.64Q99.72 14.06 99.72 13.39L99.72 13.39Q99.72 12.46 100.42 11.70Q101.11 10.94 102.14 10.68L102.14 10.68Q101.21 10.08 100.66 9.30Q100.10 8.52 100.10 7.66L100.10 7.66Q100.10 5.45 101.89 4.50Q103.68 3.55 106.63 3.55L106.63 3.55Q107.93 3.55 108.72 3.70L108.72 3.70Q109.90 2.95 110.24 2.34Q110.59 1.73 110.59 1.46L110.59 1.46L114.53 1.46ZM106.58 6.05Q105.79 6.05 105.29 6.46Q104.78 6.86 104.78 7.63L104.78 7.63Q104.78 8.42 105.25 8.82Q105.72 9.22 106.58 9.22L106.58 9.22Q107.45 9.22 107.94 8.82Q108.43 8.42 108.43 7.63L108.43 7.63Q108.43 6.84 107.94 6.44Q107.45 6.05 106.58 6.05L106.58 6.05ZM104.74 16.51Q104.18 16.51 103.84 16.81Q103.49 17.11 103.49 17.66L103.49 17.66Q103.49 18.22 103.85 18.55Q104.21 18.89 104.74 18.89L104.74 18.89L108.48 18.89Q109.01 18.89 109.38 18.56Q109.75 18.24 109.75 17.69L109.75 17.69Q109.75 17.14 109.39 16.82Q109.03 16.51 108.48 16.51L108.48 16.51L104.74 16.51ZM122.83 3.55Q126.31 3.55 128.15 5.18Q129.98 6.82 129.98 10.18L129.98 10.18L129.98 10.99L120.48 10.99Q120.48 12.36 121.09 13.06Q121.70 13.75 123.02 13.75L123.02 13.75Q124.22 13.75 124.79 13.25Q125.35 12.74 125.35 11.90L125.35 11.90L129.98 11.90Q129.98 14.21 128.23 15.50Q126.48 16.80 123.12 16.80L123.12 16.80Q119.59 16.80 117.65 15.16Q115.70 13.51 115.70 10.18L115.70 10.18Q115.70 6.91 117.60 5.23Q119.50 3.55 122.83 3.55L122.83 3.55ZM123.02 6.60Q120.77 6.60 120.50 8.74L120.50 8.74L125.16 8.74Q125.16 7.75 124.60 7.18Q124.03 6.60 123.02 6.60L123.02 6.60ZM139.99 3.53Q140.54 3.53 140.98 3.66Q141.41 3.79 141.41 3.82L141.41 3.82L141.41 7.82L139.87 7.82Q138.38 7.82 137.72 8.59Q137.06 9.36 137.06 10.87L137.06 10.87L137.06 16.51L132.29 16.51L132.29 3.84L136.20 3.84L136.51 5.76Q136.94 4.66 137.88 4.09Q138.82 3.53 139.99 3.53L139.99 3.53Z" transform="translate(51, 6.244)"></path></svg>