<?xml version="1.0" standalone="no"?>
<svg xmlns="http://www.w3.org/2000/svg" viewBox="0 0 59.148 36" width="59.148" height="36"><g fill="#ffe4b5" color="#ffe4b5" transform="translate(44.648, 6) scale(0.5)"><svg width="29.0" height="48.0" x="0.0" y="0.0" viewBox="0 0 29 48"><path fill="currentColor" fill-rule="evenodd" d="M24 28.8l4.8 4.8L14.4 48 0 33.6l4.8-4.8 9.6 9.6 9.6-9.6zm-9.6-14.4L24 24l-9.6 9.6L4.8 24l9.6-9.6zm0-14.4l14.4 14.4-4.8 4.8-9.6-9.6-9.6 9.6L0 14.4 14.4 0z"></path></svg></g><path fill="#ffe4b5" fill-rule="nonzero" d="M18.22 16.51L12.60 16.51L11.90 14.18L6.12 14.18L5.42 16.51L0 16.51L6.02 0L12.19 0L18.22 16.51ZM8.98 4.61L7.22 10.49L10.80 10.49L9.07 4.61L8.98 4.61ZM36.65 16.51L31.34 16.51L31.34 10.25L25.51 10.25L25.51 16.51L20.21 16.51L20.21 0L25.51 0L25.51 6.02L31.34 6.02L31.34 0L36.65 0L36.65 16.51Z" transform="translate(0, 9.744)"></path></svg>